<svg width="30" height="30" fill="none" xmlns="http://www.w3.org/2000/svg"><path fill-rule="evenodd" clip-rule="evenodd" d="m13.61.011 1.546 6.573-2.478 1.162 1.388 4.105-2.679.674 1.309 4.295-3.658-2.036a366.72 366.72 0 0 1-.65 2.139c.472-.158.99-.351 1.366-.499l.786-.308.562 2.69 4.417 2.303-3.447 3.618 1.63 3.467-1.298.646-2.072-4.406 2.78-2.917-3.276-1.708-.355-1.702c-.334.122-.688.244-1.005.342a6.15 6.15 0 0 1-.808.205c-.09.014-.274.04-.458-.002a.78.78 0 0 1-.49-.344.806.806 0 0 1-.059-.737l.017-.045.04-.118a127.786 127.786 0 0 0 .465-1.488c.258-.843.547-1.806.735-2.437l.258-.866 2.08 1.158-.705-2.315 2.632-.662-1.298-3.841 2.589-1.215L12.208.36 13.61.01zM7.412 17.193h.008-.008z" fill="#E3F1FF"/><path fill-rule="evenodd" clip-rule="evenodd" d="m16.998 1.133 1.865 6.762-.253.302c-.37.442-.947 1.12-1.478 1.72a36.11 36.11 0 0 1-.61.676c.18.094.392.197.628.307a52.84 52.84 0 0 0 2.83 1.2l1.499.587-4.374 2.35 1.902 1.793-1.4 2.154 3.001 1.92-2.987 8.098-1.348-.526 2.566-6.957-3.258-2.085 1.54-2.37-2.507-2.361 3.379-1.816c-.49-.207-.992-.427-1.44-.636a12.206 12.206 0 0 1-1.2-.625 2.086 2.086 0 0 1-.437-.343.909.909 0 0 1-.23-.46.798.798 0 0 1 .34-.8c.01-.008.038-.031.09-.081a7.72 7.72 0 0 0 .248-.252c.198-.208.442-.477.701-.77.41-.465.852-.98 1.199-1.39L15.61 1.538l1.388-.404z" fill="#E3F1FF"/><path fill-rule="evenodd" clip-rule="evenodd" d="M24.38 5.856c-2.473-2.602-5.696-4.261-8.767-4.261V.037c3.58 0 7.172 1.912 9.85 4.73C28.146 7.588 30 11.408 30 15.352 30 23.158 23.349 30 16.262 30v-1.558c6.216 0 12.224-6.109 12.224-13.09 0-3.45-1.635-6.897-4.105-9.496zM1.514 15.723c0 7.054 5.465 12.46 12.188 12.46v1.557C6.166 29.74 0 23.66 0 15.723 0 11.78 1.498 7.867 3.926 4.935 6.355 2.002 9.76 0 13.594 0v1.557c-3.297 0-6.309 1.723-8.516 4.388-2.208 2.667-3.564 6.226-3.564 9.778z" fill="#E3F1FF"/></svg>