<svg width="144" height="144" fill="none" xmlns="http://www.w3.org/2000/svg"><path d="M65.465 84.958c-.994-1.146-.562-1.546-.46-4.488.102-2.943 1.426-25.195 6.88-42.19 5.454-16.995 8.75-13.67 8.75-13.67.212.277 1.895 1.061 2.308 2.196.413 1.135.2.858-1.98 3.514-2.18 2.656-3.652 4.346-8.491 19.498-4.84 15.151-4.314 33.583-4.5 35.27-.187 1.689-1.496 1.01-2.507-.13zm1.016 18.142c-1.184-.389-9.904-12.784-9.058-14.041 1.43-2.16 15.707-.95 17.29-.13 1.585.82-7.03 14.553-8.232 14.171zm3.8-12.278c-1.318-.451-9.362-.447-9.545-.027-.57 1.195 4.837 8.836 5.723 8.048.887-.788 5.182-7.51 3.822-8.021z" fill="#E3F1FF"/></svg>